<?xml version="1.0" encoding="UTF-8" standalone="no"?><svg xmlns="http://www.w3.org/2000/svg" xmlns:xlink="http://www.w3.org/1999/xlink" contentStyleType="text/css" height="485px" preserveAspectRatio="none" style="width:466px;height:485px;background:#FFFFFF;" version="1.1" viewBox="0 0 466 485" width="466px" zoomAndPan="magnify"><defs/><g><!--MD5=[c189c54f1beebc99873386f42e8d6590]
cluster Broadcaster--><g id="cluster_Broadcaster"><path d="M18.268,152.5 L103.268,152.5 A3.75,3.75 0 0 1 105.768,155 L112.768,174.9883 L457.268,174.9883 A2.5,2.5 0 0 1 459.768,177.4883 L459.768,346 A2.5,2.5 0 0 1 457.268,348.5 L18.268,348.5 A2.5,2.5 0 0 1 15.768,346 L15.768,155 A2.5,2.5 0 0 1 18.268,152.5 " fill="none" style="stroke:#000000;stroke-width:1.5;"/><line style="stroke:#000000;stroke-width:1.5;" x1="15.768" x2="112.768" y1="174.9883" y2="174.9883"/><text fill="#000000" font-family="sans-serif" font-size="14" font-weight="bold" lengthAdjust="spacing" textLength="84" x="19.768" y="168.0352">Broadcaster</text></g><!--MD5=[fb14c9b1fd95d0c04eeb1a4af9d96e82]
entity input--><g id="elem_input"><path d="M190.768,195.5 L236.768,195.5 C241.768,195.5 241.768,208.7441 241.768,208.7441 C241.768,208.7441 241.768,221.9883 236.768,221.9883 L190.768,221.9883 C185.768,221.9883 185.768,208.7441 185.768,208.7441 C185.768,208.7441 185.768,195.5 190.768,195.5 " fill="#F1F1F1" style="stroke:#181818;stroke-width:0.5;"/><path d="M236.768,195.5 C231.768,195.5 231.768,208.7441 231.768,208.7441 C231.768,221.9883 236.768,221.9883 236.768,221.9883 " fill="none" style="stroke:#181818;stroke-width:0.5;"/><text fill="#000000" font-family="sans-serif" font-size="14" lengthAdjust="spacing" textLength="36" x="190.768" y="214.0352">input</text></g><!--MD5=[949218b77698cf736164b1a2688b5423]
entity receiver1--><g id="elem_receiver1"><path d="M59.268,298.5 L132.268,298.5 C137.268,298.5 137.268,311.7441 137.268,311.7441 C137.268,311.7441 137.268,324.9883 132.268,324.9883 L59.268,324.9883 C54.268,324.9883 54.268,311.7441 54.268,311.7441 C54.268,311.7441 54.268,298.5 59.268,298.5 " fill="#F1F1F1" style="stroke:#181818;stroke-width:0.5;"/><path d="M132.268,298.5 C127.268,298.5 127.268,311.7441 127.268,311.7441 C127.268,324.9883 132.268,324.9883 132.268,324.9883 " fill="none" style="stroke:#181818;stroke-width:0.5;"/><text fill="#000000" font-family="sans-serif" font-size="14" lengthAdjust="spacing" textLength="63" x="59.268" y="317.0352">receiver1</text></g><!--MD5=[487db24eb820efc9c0725181135eebdd]
entity receiver2--><g id="elem_receiver2"><path d="M177.268,298.5 L250.268,298.5 C255.268,298.5 255.268,311.7441 255.268,311.7441 C255.268,311.7441 255.268,324.9883 250.268,324.9883 L177.268,324.9883 C172.268,324.9883 172.268,311.7441 172.268,311.7441 C172.268,311.7441 172.268,298.5 177.268,298.5 " fill="#F1F1F1" style="stroke:#181818;stroke-width:0.5;"/><path d="M250.268,298.5 C245.268,298.5 245.268,311.7441 245.268,311.7441 C245.268,324.9883 250.268,324.9883 250.268,324.9883 " fill="none" style="stroke:#181818;stroke-width:0.5;"/><text fill="#000000" font-family="sans-serif" font-size="14" lengthAdjust="spacing" textLength="63" x="177.268" y="317.0352">receiver2</text></g><!--MD5=[cda2704171ff33ec64d77dc709b04c5d]
entity receiver3--><g id="elem_receiver3"><path d="M295.268,298.5 L368.268,298.5 C373.268,298.5 373.268,311.7441 373.268,311.7441 C373.268,311.7441 373.268,324.9883 368.268,324.9883 L295.268,324.9883 C290.268,324.9883 290.268,311.7441 290.268,311.7441 C290.268,311.7441 290.268,298.5 295.268,298.5 " fill="#F1F1F1" style="stroke:#181818;stroke-width:0.5;"/><path d="M368.268,298.5 C363.268,298.5 363.268,311.7441 363.268,311.7441 C363.268,324.9883 368.268,324.9883 368.268,324.9883 " fill="none" style="stroke:#181818;stroke-width:0.5;"/><text fill="#000000" font-family="sans-serif" font-size="14" lengthAdjust="spacing" textLength="63" x="295.268" y="317.0352">receiver3</text></g><!--MD5=[a72c47cdc6bb8f555d842274f043e0a4]
entity producer1--><g id="elem_producer1"><ellipse cx="60.768" cy="14" fill="#F1F1F1" rx="8" ry="8" style="stroke:#181818;stroke-width:0.5;"/><path d="M60.768,22 L60.768,49 M47.768,30 L73.768,30 M60.768,49 L47.768,64 M60.768,49 L73.768,64 " fill="none" style="stroke:#181818;stroke-width:0.5;"/><text fill="#000000" font-family="sans-serif" font-size="14" lengthAdjust="spacing" textLength="72" x="24.768" y="79.0352">producer1</text></g><!--MD5=[3e34b956f241c65904223a8e6a5dfc9f]
entity producer2--><g id="elem_producer2"><ellipse cx="177.768" cy="14" fill="#F1F1F1" rx="8" ry="8" style="stroke:#181818;stroke-width:0.5;"/><path d="M177.768,22 L177.768,49 M164.768,30 L190.768,30 M177.768,49 L164.768,64 M177.768,49 L190.768,64 " fill="none" style="stroke:#181818;stroke-width:0.5;"/><text fill="#000000" font-family="sans-serif" font-size="14" lengthAdjust="spacing" textLength="72" x="141.768" y="79.0352">producer2</text></g><!--MD5=[cb9fcd09b04ee1f0e21450cfa59ddf75]
entity consumer1--><g id="elem_consumer1"><ellipse cx="100.768" cy="412" fill="#F1F1F1" rx="8" ry="8" style="stroke:#181818;stroke-width:0.5;"/><path d="M100.768,420 L100.768,447 M87.768,428 L113.768,428 M100.768,447 L87.768,462 M100.768,447 L113.768,462 " fill="none" style="stroke:#181818;stroke-width:0.5;"/><text fill="#000000" font-family="sans-serif" font-size="14" lengthAdjust="spacing" textLength="77" x="62.268" y="477.0352">consumer1</text></g><!--MD5=[3f90afcea0da0ceb711919584ba4f3a8]
entity consumer2--><g id="elem_consumer2"><ellipse cx="213.768" cy="412" fill="#F1F1F1" rx="8" ry="8" style="stroke:#181818;stroke-width:0.5;"/><path d="M213.768,420 L213.768,447 M200.768,428 L226.768,428 M213.768,447 L200.768,462 M213.768,447 L226.768,462 " fill="none" style="stroke:#181818;stroke-width:0.5;"/><text fill="#000000" font-family="sans-serif" font-size="14" lengthAdjust="spacing" textLength="77" x="175.268" y="477.0352">consumer2</text></g><!--MD5=[a48f1523b0b521598467e055ef68e38e]
entity consumer3--><g id="elem_consumer3"><ellipse cx="328.768" cy="412" fill="#F1F1F1" rx="8" ry="8" style="stroke:#181818;stroke-width:0.5;"/><path d="M328.768,420 L328.768,447 M315.768,428 L341.768,428 M328.768,447 L315.768,462 M328.768,447 L341.768,462 " fill="none" style="stroke:#181818;stroke-width:0.5;"/><text fill="#000000" font-family="sans-serif" font-size="14" lengthAdjust="spacing" textLength="77" x="290.268" y="477.0352">consumer3</text></g><!--MD5=[16a2f54fd853f970fe09a5df525cf639]
link producer1 to producer2--><!--MD5=[50cc5e570a03f8336b636bc45865d519]
link producer1 to Broadcaster--><!--MD5=[ac9244e8736804bcd75be9cf1a72f771]
link producer2 to Broadcaster--><!--MD5=[5904d9d6a30139352b4c169c65db131a]
link receiver1 to receiver2--><!--MD5=[fa1f06827eadf2e2140f86a0a5f25507]
link receiver2 to receiver3--><!--MD5=[146ddf9eed3d561965c0d4413d6944dd]
link consumer1 to consumer2--><!--MD5=[aae51d532a6d1388541513ca1068df7d]
link consumer2 to consumer3--><!--MD5=[b67e881b6d1dd3f9f6589295cad7706f]
link producer1 to input--><g id="link_producer1_input"><path d="M66.768,81.76 C71.478,98.72 79.868,117.43 94.768,128.5 C125.938,151.66 150.158,113.95 181.768,136.5 C198.868,148.7 206.998,172.24 210.748,188.87 " fill="none" id="producer1-to-input" style="stroke:#181818;stroke-width:1.0;"/><polygon fill="#181818" points="211.718,193.6,213.8376,183.9819,210.7182,188.701,205.9992,185.5816,211.718,193.6" style="stroke:#181818;stroke-width:1.0;"/><text fill="#000000" font-family="sans-serif" font-size="13" lengthAdjust="spacing" textLength="92" x="95.768" y="125.0684">input message</text></g><!--MD5=[a8bd74a5ec2b4ded66966a9136b8551d]
link producer2 to input--><g id="link_producer2_input"><path d="M189.088,81.89 C191.798,91.49 194.548,101.84 196.768,111.5 C202.908,138.21 208.078,169.53 211.058,188.95 " fill="none" id="producer2-to-input" style="stroke:#181818;stroke-width:1.0;"/><polygon fill="#181818" points="211.788,193.8,214.406,184.3055,211.0449,188.8555,206.4949,185.4944,211.788,193.8" style="stroke:#181818;stroke-width:1.0;"/><text fill="#000000" font-family="sans-serif" font-size="13" lengthAdjust="spacing" textLength="92" x="200.768" y="125.0684">input message</text></g><!--MD5=[8b33d7390f5714a0a595207b7167a172]
link input to receiver1--><g id="link_input_receiver1"><path d="M185.508,220.3 C155.928,231.72 113.398,248.48 110.768,251.5 C101.078,262.63 97.498,279.18 96.238,291.92 " fill="none" id="input-to-receiver1" style="stroke:#181818;stroke-width:1.0;"/><polygon fill="#181818" points="95.888,296.67,100.5456,287.992,96.2595,291.6838,92.5677,287.3977,95.888,296.67" style="stroke:#181818;stroke-width:1.0;"/><text fill="#000000" font-family="sans-serif" font-size="13" lengthAdjust="spacing" textLength="89" x="111.768" y="265.0684">copy message</text></g><!--MD5=[d2d119686ef40684ca6f3a08cca74931]
link input to receiver2--><g id="link_input_receiver2"><path d="M212.528,221.7 C211.468,233.63 210.188,252.31 210.768,268.5 C211.038,276.11 211.588,284.47 212.138,291.72 " fill="none" id="input-to-receiver2" style="stroke:#181818;stroke-width:1.0;"/><polygon fill="#181818" points="212.518,296.51,215.7855,287.2189,212.1182,291.526,207.8111,287.8587,212.518,296.51" style="stroke:#181818;stroke-width:1.0;"/><text fill="#000000" font-family="sans-serif" font-size="13" lengthAdjust="spacing" textLength="89" x="211.768" y="265.0684">copy message</text></g><!--MD5=[dcfead4ee53dfb758df2e1ce078b04f8]
link input to receiver3--><g id="link_input_receiver3"><path d="M242.258,216.64 C262.238,222.93 288.378,233.88 305.768,251.5 C316.748,262.63 323.488,279.17 327.338,291.91 " fill="none" id="input-to-receiver3" style="stroke:#181818;stroke-width:1.0;"/><polygon fill="#181818" points="328.698,296.72,330.1329,286.9762,327.3547,291.9038,322.427,289.1256,328.698,296.72" style="stroke:#181818;stroke-width:1.0;"/><text fill="#000000" font-family="sans-serif" font-size="13" lengthAdjust="spacing" textLength="89" x="317.768" y="265.0684">copy message</text></g><!--MD5=[ed4ea5571800a2935969693f6e3bd2a2]
link receiver1 to consumer1--><g id="link_receiver1_consumer1"><path d="M96.248,324.77 C96.888,341.27 98.068,371.47 99.068,396.88 " fill="none" id="receiver1-to-consumer1" style="stroke:#181818;stroke-width:1.0;"/><polygon fill="#181818" points="99.248,401.71,102.8851,392.5573,99.0482,396.714,94.8915,392.8771,99.248,401.71" style="stroke:#181818;stroke-width:1.0;"/></g><!--MD5=[be6866cb89901f74b680488b51d322cb]
link receiver2 to consumer2--><g id="link_receiver2_consumer2"><path d="M213.768,324.77 C213.768,341.27 213.768,371.47 213.768,396.88 " fill="none" id="receiver2-to-consumer2" style="stroke:#181818;stroke-width:1.0;"/><polygon fill="#181818" points="213.768,401.71,217.768,392.71,213.768,396.71,209.768,392.71,213.768,401.71" style="stroke:#181818;stroke-width:1.0;"/></g><!--MD5=[fe16635dd21ddc08bf42ef67d8244f69]
link receiver3 to consumer3--><g id="link_receiver3_consumer3"><path d="M331.478,324.77 C331.098,341.27 330.388,371.47 329.788,396.88 " fill="none" id="receiver3-to-consumer3" style="stroke:#181818;stroke-width:1.0;"/><polygon fill="#181818" points="329.678,401.71,333.8827,392.8038,329.7923,396.7113,325.8848,392.6209,329.678,401.71" style="stroke:#181818;stroke-width:1.0;"/></g><!--MD5=[6c701e7d0c4e54b544bbb45d38e9fef8]
@startuml BroadcasterRemoved

actor producer1
actor producer2

producer1 -[hidden]right-> producer2
producer1 -[hidden]down-> Broadcaster
producer2 -[hidden]down-> Broadcaster

package Broadcaster {
    queue input

    queue receiver1
    queue receiver2
    queue receiver3
}

receiver1 -[hidden]right-> receiver2
receiver2 -[hidden]right-> receiver3

actor consumer1
actor consumer2
actor consumer3

consumer1 -[hidden]right-> consumer2
consumer2 -[hidden]right-> consumer3

producer1 -down-> input: input message
producer2 -down-> input: input message

input -down-> receiver1: copy message
input -down-> receiver2: copy message
input -down-> receiver3: copy message

receiver1 -down-> consumer1
receiver2 -down-> consumer2
receiver3 -down-> consumer3

@enduml

PlantUML version 1.2022.7(Tue Aug 23 02:01:30 KST 2022)
(GPL source distribution)
Java Runtime: OpenJDK Runtime Environment
JVM: OpenJDK 64-Bit Server VM
Default Encoding: UTF-8
Language: ko
Country: KR
--></g></svg>