<?xml version="1.0" encoding="UTF-8" standalone="no"?><svg xmlns="http://www.w3.org/2000/svg" xmlns:xlink="http://www.w3.org/1999/xlink" contentStyleType="text/css" height="328px" preserveAspectRatio="none" style="width:476px;height:328px;background:#FFFFFF;" version="1.1" viewBox="0 0 476 328" width="476px" zoomAndPan="magnify"><defs/><g><!--MD5=[a70b0d373322012744ecc119c63f921b]
cluster main--><g id="cluster_main"><rect fill="none" height="89.49" rx="2.5" ry="2.5" style="stroke:#181818;stroke-width:1.0;" width="108" x="147.89" y="7"/><rect fill="none" height="10" style="stroke:#181818;stroke-width:1.0;" width="15" x="235.89" y="12"/><rect fill="none" height="2" style="stroke:#181818;stroke-width:1.0;" width="4" x="233.89" y="14"/><rect fill="none" height="2" style="stroke:#181818;stroke-width:1.0;" width="4" x="233.89" y="18"/><text fill="#000000" font-family="sans-serif" font-size="14" font-weight="bold" lengthAdjust="spacing" textLength="36" x="183.89" y="33.5352">main</text></g><!--MD5=[5b83e40b5c67491cbafc419e94657df7]
entity ctx--><g id="elem_ctx"><rect fill="#F1F1F1" height="22.4883" rx="2.5" ry="2.5" style="stroke:#181818;stroke-width:0.5;" width="41" x="191.39" y="50"/><text fill="#000000" font-family="sans-serif" font-size="14" lengthAdjust="spacing" textLength="21" x="201.39" y="66.5352">ctx</text></g><!--MD5=[77359a80dce242e245ab309072a510dc]
entity AuthServer--><g id="elem_AuthServer"><rect fill="#F1F1F1" height="46.4883" rx="2.5" ry="2.5" style="stroke:#181818;stroke-width:0.5;" width="116" x="97.89" y="167.49"/><rect fill="#F1F1F1" height="10" style="stroke:#181818;stroke-width:0.5;" width="15" x="193.89" y="172.49"/><rect fill="#F1F1F1" height="2" style="stroke:#181818;stroke-width:0.5;" width="4" x="191.89" y="174.49"/><rect fill="#F1F1F1" height="2" style="stroke:#181818;stroke-width:0.5;" width="4" x="191.89" y="178.49"/><text fill="#000000" font-family="sans-serif" font-size="14" lengthAdjust="spacing" textLength="76" x="112.89" y="201.0252">AuthServer</text></g><g id="elem_CheckToken"><ellipse cx="72.8912" cy="306.7482" fill="#F1F1F1" rx="66.8912" ry="15.7782" style="stroke:#181818;stroke-width:0.5;"/><text fill="#000000" font-family="sans-serif" font-size="14" lengthAdjust="spacing" textLength="85" x="27.3912" y="310.7658">CheckToken</text></g><g id="elem_GetUserInfo"><ellipse cx="239.8927" cy="306.7465" fill="#F1F1F1" rx="65.4827" ry="15.4965" style="stroke:#181818;stroke-width:0.5;"/><text fill="#000000" font-family="sans-serif" font-size="14" lengthAdjust="spacing" textLength="81" x="196.3927" y="310.7641">GetUserInfo</text></g><!--MD5=[05d7f73b3ffbb868577a7bcce596e592]
link main to AuthServer--><g id="link_main_AuthServer"><path d="M155.89,96.7449 C155.89,96.8971 155.89,97.0495 155.89,97.2022 C155.89,97.8129 155.89,98.4281 155.89,99.0475 C155.89,118.8675 155.89,142.945 155.89,161.31 " fill="none" id="main-to-AuthServer" style="stroke:#181818;stroke-width:1.0;"/><polygon fill="#181818" points="155.89,165.99,159.89,156.99,155.89,160.99,151.89,156.99,155.89,165.99" style="stroke:#181818;stroke-width:1.0;"/><text fill="#000000" font-family="sans-serif" font-size="13" lengthAdjust="spacing" textLength="312" x="156.89" y="134.0584">WithCancel, WithValue(redis), WithValue(postgres)</text></g><!--MD5=[54ceacd48947cc24aacce6943df07173]
link AuthServer to CheckToken--><g id="link_AuthServer_CheckToken"><path d="M137.59,214.36 C130.37,223.45 122.1,234.11 114.89,243.97 C104.85,257.72 94.06,273.61 85.94,285.83 " fill="none" id="AuthServer-to-CheckToken" style="stroke:#181818;stroke-width:1.0;"/><polygon fill="#181818" points="82.63,289.83,90.9296,284.5274,85.387,285.6588,84.2556,280.1162,82.63,289.83" style="stroke:#181818;stroke-width:1.0;"/><text fill="#000000" font-family="sans-serif" font-size="13" lengthAdjust="spacing" textLength="80" x="115.89" y="257.5384">WithTimeout</text></g><!--MD5=[76c3905f81455ca4dbe51ca7e42f9396]
link AuthServer to GetUserInfo--><g id="link_AuthServer_GetUserInfo"><path d="M176.59,214.27 C184.5,223.27 193.41,233.87 200.89,243.97 C210.93,257.53 221.06,273.68 228.48,286.06 " fill="none" id="AuthServer-to-GetUserInfo" style="stroke:#181818;stroke-width:1.0;"/><polygon fill="#181818" points="231.49,290.12,230.3278,280.34,228.9343,285.8225,223.4518,284.429,231.49,290.12" style="stroke:#181818;stroke-width:1.0;"/><text fill="#000000" font-family="sans-serif" font-size="13" lengthAdjust="spacing" textLength="80" x="212.89" y="257.5384">WithTimeout</text></g><!--MD5=[d3e80b8ac63f914be0b05dc2d7eff1be]
@startuml context

component main {
    card ctx
}

component AuthServer

main -down-> AuthServer: WithCancel, WithValue(redis), WithValue(postgres)

usecase CheckToken

AuthServer -down-> CheckToken: WithTimeout

usecase GetUserInfo

AuthServer -down-> GetUserInfo: WithTimeout

@enduml

PlantUML version 1.2022.7(Tue Aug 23 02:01:30 KST 2022)
(GPL source distribution)
Java Runtime: OpenJDK Runtime Environment
JVM: OpenJDK 64-Bit Server VM
Default Encoding: UTF-8
Language: en
Country: KR
--></g></svg>