<?xml version="1.0" encoding="UTF-8" standalone="no"?><svg xmlns="http://www.w3.org/2000/svg" xmlns:xlink="http://www.w3.org/1999/xlink" contentStyleType="text/css" height="363px" preserveAspectRatio="none" style="width:693px;height:363px;background:#FFFFFF;" version="1.1" viewBox="0 0 693 363" width="693px" zoomAndPan="magnify"><defs/><g><!--MD5=[a70b0d373322012744ecc119c63f921b]
cluster main--><g id="cluster_main"><rect fill="none" height="89.48" rx="2.5" ry="2.5" style="stroke:#181818;stroke-width:1.0;" width="108" x="335.5" y="7"/><rect fill="none" height="10" style="stroke:#181818;stroke-width:1.0;" width="15" x="423.5" y="12"/><rect fill="none" height="2" style="stroke:#181818;stroke-width:1.0;" width="4" x="421.5" y="14"/><rect fill="none" height="2" style="stroke:#181818;stroke-width:1.0;" width="4" x="421.5" y="18"/><text fill="#000000" font-family="sans-serif" font-size="14" font-weight="bold" lengthAdjust="spacing" textLength="36" x="371.5" y="33.5352">main</text></g><!--MD5=[5b83e40b5c67491cbafc419e94657df7]
entity ctx--><g id="elem_ctx"><rect fill="#F1F1F1" height="22.4883" rx="2.5" ry="2.5" style="stroke:#181818;stroke-width:0.5;" width="41" x="379" y="50"/><text fill="#000000" font-family="sans-serif" font-size="14" lengthAdjust="spacing" textLength="21" x="389" y="66.5352">ctx</text></g><!--MD5=[f4febea15e75a11c1619e1caf0dd02ad]
entity RequestPool--><g id="elem_RequestPool"><rect fill="#F1F1F1" height="32.4883" rx="2.5" ry="2.5" style="stroke:#181818;stroke-width:0.5;" width="101" x="11" y="191.48"/><rect fill="#F1F1F1" height="32.4883" rx="2.5" ry="2.5" style="stroke:#181818;stroke-width:0.5;" width="101" x="7" y="187.48"/><text fill="#000000" font-family="sans-serif" font-size="14" lengthAdjust="spacing" textLength="85" x="15" y="209.0152">RequestPool</text></g><!--MD5=[3fc9e9385c59072880ea730bebc9cbfe]
entity ResponsePool--><g id="elem_ResponsePool"><rect fill="#F1F1F1" height="32.4883" rx="2.5" ry="2.5" style="stroke:#181818;stroke-width:0.5;" width="112" x="289.5" y="324.97"/><rect fill="#F1F1F1" height="32.4883" rx="2.5" ry="2.5" style="stroke:#181818;stroke-width:0.5;" width="112" x="285.5" y="320.97"/><text fill="#000000" font-family="sans-serif" font-size="14" lengthAdjust="spacing" textLength="96" x="293.5" y="342.5052">ResponsePool</text></g><!--MD5=[fee662a292a0353a69bd162820bae93b]
entity User--><g id="elem_User"><ellipse cx="670.5" cy="175.98" fill="#F1F1F1" rx="8" ry="8" style="stroke:#181818;stroke-width:0.5;"/><path d="M670.5,183.98 L670.5,210.98 M657.5,191.98 L683.5,191.98 M670.5,210.98 L657.5,225.98 M670.5,210.98 L683.5,225.98 " fill="none" style="stroke:#181818;stroke-width:0.5;"/><text fill="#000000" font-family="sans-serif" font-size="14" lengthAdjust="spacing" textLength="31" x="655" y="241.0152">User</text></g><!--MD5=[269d10e65fa0ae5ac934f98547a8b807]
entity SearchServer--><g id="elem_SearchServer"><rect fill="#F1F1F1" height="46.4883" rx="2.5" ry="2.5" style="stroke:#181818;stroke-width:0.5;" width="129" x="279" y="182.48"/><rect fill="#F1F1F1" height="10" style="stroke:#181818;stroke-width:0.5;" width="15" x="388" y="187.48"/><rect fill="#F1F1F1" height="2" style="stroke:#181818;stroke-width:0.5;" width="4" x="386" y="189.48"/><rect fill="#F1F1F1" height="2" style="stroke:#181818;stroke-width:0.5;" width="4" x="386" y="193.48"/><text fill="#000000" font-family="sans-serif" font-size="14" lengthAdjust="spacing" textLength="89" x="294" y="216.0152">SearchServer</text></g><!--MD5=[c2d3248d3ecf67ee7066c6c1a0dd1923]
link main to SearchServer--><g id="link_main_SearchServer"><path d="M343.5,96.8726 C343.5,99.5834 343.5,102.3912 343.5,105.2725 C343.5,128.3225 343.5,156.07 343.5,176.39 " fill="none" id="main-to-SearchServer" style="stroke:#181818;stroke-width:1.0;"/><polygon fill="#181818" points="343.5,181.16,347.5,172.16,343.5,176.16,339.5,172.16,343.5,181.16" style="stroke:#181818;stroke-width:1.0;"/><text fill="#000000" font-family="sans-serif" font-size="13" lengthAdjust="spacing" textLength="70" x="344.5" y="134.0484">WithCancel</text></g><!--MD5=[ded191dcafa81f99b8f30deffa8290b6]
reverse link SearchServer to User--><g id="link_SearchServer_User"><path d="M413.92,220.97 C425.59,222.95 437.6,224.66 449,225.73 C485.51,229.16 577.86,231.93 614,225.73 C628.15,223.3 643.46,217.67 654.57,213.01 " fill="none" id="SearchServer-backto-User" style="stroke:#181818;stroke-width:1.0;"/><polygon fill="#181818" points="409.23,219.98,417.3961,225.4859,414.1536,220.8506,418.789,217.6081,409.23,219.98" style="stroke:#181818;stroke-width:1.0;"/><text fill="#000000" font-family="sans-serif" font-size="13" lengthAdjust="spacing" textLength="163" x="450" y="222.2984">1. request search with ctx</text></g><!--MD5=[6ff5bd2ed9d0a8735f2535cfa2ce9002]
link SearchServer to User--><g id="link_SearchServer_User"><path d="M408.5,205.73 C482.98,205.73 600.94,205.73 649.03,205.73 " fill="none" id="SearchServer-to-User" style="stroke:#181818;stroke-width:1.0;"/><polygon fill="#181818" points="653.81,205.73,644.81,201.73,648.81,205.73,644.81,209.73,653.81,205.73" style="stroke:#181818;stroke-width:1.0;"/><text fill="#000000" font-family="sans-serif" font-size="13" lengthAdjust="spacing" textLength="210" x="426.5" y="199.2984">4. return response and cancel ctx</text></g><!--MD5=[e94858fa767798a78f776b56133e8c36]
link RequestPool to SearchServer--><g id="link_RequestPool_SearchServer"><path d="M118.14,205.73 C163.05,205.73 225.18,205.73 272.83,205.73 " fill="none" id="RequestPool-SearchServer" style="stroke:#181818;stroke-width:1.0;"/><polygon fill="#181818" points="277.57,205.73,268.57,201.73,272.57,205.73,268.57,209.73,277.57,205.73" style="stroke:#181818;stroke-width:1.0;"/><polygon fill="#181818" points="113.25,205.73,122.25,209.73,118.25,205.73,122.25,201.73,113.25,205.73" style="stroke:#181818;stroke-width:1.0;"/><text fill="#000000" font-family="sans-serif" font-size="13" lengthAdjust="spacing" textLength="130" x="130.5" y="199.2984">2. get reqeust object</text></g><!--MD5=[183f7fe83a5afe5baebf38e65939766a]
link SearchServer to ResponsePool--><g id="link_SearchServer_ResponsePool"><path d="M343.5,235.01 C343.5,258.73 343.5,292.22 343.5,314.55 " fill="none" id="SearchServer-ResponsePool" style="stroke:#181818;stroke-width:1.0;"/><polygon fill="#181818" points="343.5,319.53,347.5,310.53,343.5,314.53,339.5,310.53,343.5,319.53" style="stroke:#181818;stroke-width:1.0;"/><polygon fill="#181818" points="343.5,230.33,339.5,239.33,343.5,235.33,347.5,239.33,343.5,230.33" style="stroke:#181818;stroke-width:1.0;"/><text fill="#000000" font-family="sans-serif" font-size="13" lengthAdjust="spacing" textLength="140" x="344.5" y="287.5384">3. get response object</text></g><!--MD5=[4717cadc7a4a5b1617c9a340939bf4ab]
@startuml context

component main {
    card ctx
}

collections RequestPool
collections ResponsePool

actor User

component SearchServer

main -down-> SearchServer: WithCancel

User -left-> SearchServer: 1. request search with ctx
SearchServer <-left-> RequestPool: 2. get reqeust object
SearchServer <-down-> ResponsePool: 3. get response object
SearchServer -right-> User: 4. return response and cancel ctx

@enduml

PlantUML version 1.2022.7(Tue Aug 23 02:01:30 KST 2022)
(GPL source distribution)
Java Runtime: OpenJDK Runtime Environment
JVM: OpenJDK 64-Bit Server VM
Default Encoding: UTF-8
Language: en
Country: KR
--></g></svg>